<svg xmlns="http://www.w3.org/2000/svg" xmlns:xlink="http://www.w3.org/1999/xlink" width="640" zoomAndPan="magnify" viewBox="0 0 480 479.999983" height="640" preserveAspectRatio="xMidYMid meet" version="1.0"><defs><clipPath id="d261fd5f91"><path d="M 98.273438 81.648438 L 381.773438 81.648438 L 381.773438 398.148438 L 98.273438 398.148438 Z M 98.273438 81.648438 " clip-rule="nonzero"/></clipPath></defs><g clip-path="url(#d261fd5f91)"><path fill="#0092e4" d="M 356.726562 364.832031 L 240.023438 398.148438 L 123.320312 364.832031 L 98.3125 81.648438 L 381.734375 81.648438 C 373.398438 176.03125 365.0625 270.445312 356.726562 364.832031 Z M 363.53125 98.304688 L 116.515625 98.304688 L 138.917969 351.945312 L 240.023438 380.839844 L 341.128906 351.945312 Z M 171.675781 264.882812 L 205.019531 264.882812 L 205.832031 285.707031 L 240.023438 297.351562 L 274.214844 285.707031 L 276.6875 248.226562 L 203.359375 248.226562 L 201.664062 214.910156 L 278.382812 214.910156 L 280.855469 181.59375 L 165.847656 181.59375 L 163.339844 148.277344 L 315.894531 148.277344 L 311.726562 214.910156 L 305.863281 310.691406 L 240.023438 332.359375 L 174.183594 310.691406 Z M 171.675781 264.882812 " fill-opacity="1" fill-rule="evenodd"/></g></svg>