<svg xmlns="http://www.w3.org/2000/svg" xmlns:xlink="http://www.w3.org/1999/xlink" width="640" zoomAndPan="magnify" viewBox="0 0 480 479.999983" height="640" preserveAspectRatio="xMidYMid meet" version="1.0"><defs><clipPath id="5b376613c4"><path d="M 80.917969 19 L 404 19 L 404 431 L 80.917969 431 Z M 80.917969 19 " clip-rule="nonzero"/></clipPath></defs><g clip-path="url(#5b376613c4)"><path fill="#0092e4" d="M 268.347656 19.855469 C 290.96875 72.15625 187.1875 104.457031 177.582031 148.058594 C 168.714844 188.066406 239.175781 234.589844 239.207031 234.589844 C 228.507812 218.023438 220.765625 204.34375 210.03125 178.5625 C 191.878906 134.960938 320.527344 95.53125 268.347656 19.855469 Z M 337.136719 92.320312 C 337.136719 92.320312 246.273438 98.066406 241.648438 156.183594 C 239.59375 182.0625 265.519531 195.867188 266.292969 214.714844 C 266.871094 230.0625 250.773438 242.871094 250.773438 242.871094 C 250.773438 242.871094 279.980469 237.382812 289.136719 213.910156 C 299.257812 187.871094 269.503906 170.085938 272.492188 149.246094 C 275.382812 129.308594 337.136719 92.320312 337.136719 92.320312 Z M 359.179688 226.5625 C 349.667969 226.144531 339.097656 229.292969 329.523438 236.164062 C 348.285156 232.148438 364.160156 243.613281 364.160156 256.839844 C 364.160156 286.636719 321.074219 314.792969 321.074219 314.792969 C 321.074219 314.792969 387.773438 307.183594 387.773438 258.253906 C 387.773438 238.023438 374.988281 227.300781 359.179688 226.5625 Z M 194.289062 226.625 C 194.289062 226.625 111.042969 225.503906 111.042969 249.039062 C 111.042969 273.632812 220.058594 275.367188 297.90625 260.210938 C 297.90625 260.210938 318.695312 245.988281 324.222656 240.691406 C 273.199219 251.09375 156.761719 252.472656 156.761719 243.484375 C 156.761719 235.167969 194.289062 226.625 194.289062 226.625 Z M 174.175781 272.410156 C 161.421875 272.410156 142.367188 282.269531 142.367188 291.773438 C 142.367188 310.875 238.53125 325.613281 309.730469 297.679688 L 285.085938 282.589844 C 236.828125 298.035156 147.863281 293.089844 174.175781 272.410156 Z M 186.03125 315.148438 C 168.519531 315.148438 157.179688 325.933594 157.179688 333.898438 C 157.179688 358.429688 261.695312 360.898438 303.113281 335.953125 L 276.796875 319.226562 C 245.855469 332.292969 168.167969 334.058594 186.03125 315.148438 Z M 127.714844 337.367188 C 99.183594 336.789062 80.648438 349.597656 80.648438 360.226562 C 80.613281 416.734375 372.832031 414.007812 372.832031 356.246094 C 372.832031 346.675781 361.523438 342.117188 357.445312 339.933594 C 381.316406 395.160156 118.496094 390.886719 118.496094 358.300781 C 118.496094 350.882812 137.773438 343.59375 155.703125 347.09375 L 140.503906 338.457031 C 136.039062 337.78125 131.765625 337.429688 127.714844 337.367188 Z M 403.644531 375.378906 C 359.210938 417.441406 246.628906 432.789062 133.402344 406.8125 C 246.597656 453.082031 403.066406 427.042969 403.644531 375.378906 Z M 403.644531 375.378906 " fill-opacity="1" fill-rule="nonzero"/></g></svg>